<svg xmlns:xlink="http://www.w3.org/1999/xlink" width="53.632ex" height="10.009ex" style="vertical-align: -4.338ex;" viewBox="0 -2441.8 23091.5 4309.5" role="img" focusable="false" xmlns="http://www.w3.org/2000/svg">
<defs>
<path stroke-width="1" id="E1-MJMAIN-2202" d="M202 508Q179 508 169 520T158 547Q158 557 164 577T185 624T230 675T301 710L333 715H345Q378 715 384 714Q447 703 489 661T549 568T566 457Q566 362 519 240T402 53Q321 -22 223 -22Q123 -22 73 56Q42 102 42 148V159Q42 276 129 370T322 465Q383 465 414 434T455 367L458 378Q478 461 478 515Q478 603 437 639T344 676Q266 676 223 612Q264 606 264 572Q264 547 246 528T202 508ZM430 306Q430 372 401 400T333 428Q270 428 222 382Q197 354 183 323T150 221Q132 149 132 116Q132 21 232 21Q244 21 250 22Q327 35 374 112Q389 137 409 196T430 306Z"></path>
<path stroke-width="1" id="E1-MJCAL-4C" d="M62 -22T47 -22T32 -11Q32 -1 56 24T83 55Q113 96 138 172T180 320T234 473T323 609Q364 649 419 677T531 705Q559 705 578 696T604 671T615 645T618 623V611Q618 582 615 571T598 548Q581 531 558 520T518 509Q503 509 503 520Q503 523 505 536T507 560Q507 590 494 610T452 630Q423 630 410 617Q367 578 333 492T271 301T233 170Q211 123 204 112L198 103L224 102Q281 102 369 79T509 52H523Q535 64 544 87T579 128Q616 152 641 152Q656 152 656 142Q656 101 588 40T433 -22Q381 -22 289 1T156 28L141 29L131 20Q111 0 87 -11Z"></path>
<path stroke-width="1" id="E1-MJMATHI-77" d="M580 385Q580 406 599 424T641 443Q659 443 674 425T690 368Q690 339 671 253Q656 197 644 161T609 80T554 12T482 -11Q438 -11 404 5T355 48Q354 47 352 44Q311 -11 252 -11Q226 -11 202 -5T155 14T118 53T104 116Q104 170 138 262T173 379Q173 380 173 381Q173 390 173 393T169 400T158 404H154Q131 404 112 385T82 344T65 302T57 280Q55 278 41 278H27Q21 284 21 287Q21 293 29 315T52 366T96 418T161 441Q204 441 227 416T250 358Q250 340 217 250T184 111Q184 65 205 46T258 26Q301 26 334 87L339 96V119Q339 122 339 128T340 136T341 143T342 152T345 165T348 182T354 206T362 238T373 281Q402 395 406 404Q419 431 449 431Q468 431 475 421T483 402Q483 389 454 274T422 142Q420 131 420 107V100Q420 85 423 71T442 42T487 26Q558 26 600 148Q609 171 620 213T632 273Q632 306 619 325T593 357T580 385Z"></path>
<path stroke-width="1" id="E1-MJMAIN-20D7" d="M-123 694Q-123 702 -118 708T-103 714Q-93 714 -88 706T-80 687T-67 660T-40 633Q-29 626 -29 615Q-29 606 -36 600T-53 590T-83 571T-121 531Q-135 516 -143 516T-157 522T-163 536T-152 559T-129 584T-116 595H-287L-458 596Q-459 597 -461 599T-466 602T-469 607T-471 615Q-471 622 -458 635H-99Q-123 673 -123 694Z"></path>
<path stroke-width="1" id="E1-MJMAIN-3D" d="M56 347Q56 360 70 367H707Q722 359 722 347Q722 336 708 328L390 327H72Q56 332 56 347ZM56 153Q56 168 72 173H708Q722 163 722 153Q722 140 707 133H70Q56 140 56 153Z"></path>
<path stroke-width="1" id="E1-MJMAIN-31" d="M213 578L200 573Q186 568 160 563T102 556H83V602H102Q149 604 189 617T245 641T273 663Q275 666 285 666Q294 666 302 660V361L303 61Q310 54 315 52T339 48T401 46H427V0H416Q395 3 257 3Q121 3 100 0H88V46H114Q136 46 152 46T177 47T193 50T201 52T207 57T213 61V578Z"></path>
<path stroke-width="1" id="E1-MJMAIN-32" d="M109 429Q82 429 66 447T50 491Q50 562 103 614T235 666Q326 666 387 610T449 465Q449 422 429 383T381 315T301 241Q265 210 201 149L142 93L218 92Q375 92 385 97Q392 99 409 186V189H449V186Q448 183 436 95T421 3V0H50V19V31Q50 38 56 46T86 81Q115 113 136 137Q145 147 170 174T204 211T233 244T261 278T284 308T305 340T320 369T333 401T340 431T343 464Q343 527 309 573T212 619Q179 619 154 602T119 569T109 550Q109 549 114 549Q132 549 151 535T170 489Q170 464 154 447T109 429Z"></path>
<path stroke-width="1" id="E1-MJMATHI-6E" d="M21 287Q22 293 24 303T36 341T56 388T89 425T135 442Q171 442 195 424T225 390T231 369Q231 367 232 367L243 378Q304 442 382 442Q436 442 469 415T503 336T465 179T427 52Q427 26 444 26Q450 26 453 27Q482 32 505 65T540 145Q542 153 560 153Q580 153 580 145Q580 144 576 130Q568 101 554 73T508 17T439 -10Q392 -10 371 17T350 73Q350 92 386 193T423 345Q423 404 379 404H374Q288 404 229 303L222 291L189 157Q156 26 151 16Q138 -11 108 -11Q95 -11 87 -5T76 7T74 17Q74 30 112 180T152 343Q153 348 153 366Q153 405 129 405Q91 405 66 305Q60 285 60 284Q58 278 41 278H27Q21 284 21 287Z"></path>
<path stroke-width="1" id="E1-MJMAIN-28" d="M94 250Q94 319 104 381T127 488T164 576T202 643T244 695T277 729T302 750H315H319Q333 750 333 741Q333 738 316 720T275 667T226 581T184 443T167 250T184 58T225 -81T274 -167T316 -220T333 -241Q333 -250 318 -250H315H302L274 -226Q180 -141 137 -14T94 250Z"></path>
<path stroke-width="1" id="E1-MJMATHI-79" d="M21 287Q21 301 36 335T84 406T158 442Q199 442 224 419T250 355Q248 336 247 334Q247 331 231 288T198 191T182 105Q182 62 196 45T238 27Q261 27 281 38T312 61T339 94Q339 95 344 114T358 173T377 247Q415 397 419 404Q432 431 462 431Q475 431 483 424T494 412T496 403Q496 390 447 193T391 -23Q363 -106 294 -155T156 -205Q111 -205 77 -183T43 -117Q43 -95 50 -80T69 -58T89 -48T106 -45Q150 -45 150 -87Q150 -107 138 -122T115 -142T102 -147L99 -148Q101 -153 118 -160T152 -167H160Q177 -167 186 -165Q219 -156 247 -127T290 -65T313 -9T321 21L315 17Q309 13 296 6T270 -6Q250 -11 231 -11Q185 -11 150 11T104 82Q103 89 103 113Q103 170 138 262T173 379Q173 380 173 381Q173 390 173 393T169 400T158 404H154Q131 404 112 385T82 344T65 302T57 280Q55 278 41 278H27Q21 284 21 287Z"></path>
<path stroke-width="1" id="E1-MJMATHI-54" d="M40 437Q21 437 21 445Q21 450 37 501T71 602L88 651Q93 669 101 677H569H659Q691 677 697 676T704 667Q704 661 687 553T668 444Q668 437 649 437Q640 437 637 437T631 442L629 445Q629 451 635 490T641 551Q641 586 628 604T573 629Q568 630 515 631Q469 631 457 630T439 622Q438 621 368 343T298 60Q298 48 386 46Q418 46 427 45T436 36Q436 31 433 22Q429 4 424 1L422 0Q419 0 415 0Q410 0 363 1T228 2Q99 2 64 0H49Q43 6 43 9T45 27Q49 40 55 46H83H94Q174 46 189 55Q190 56 191 56Q196 59 201 76T241 233Q258 301 269 344Q339 619 339 625Q339 630 310 630H279Q212 630 191 624Q146 614 121 583T67 467Q60 445 57 441T43 437H40Z"></path>
<path stroke-width="1" id="E1-MJMAIN-2212" d="M84 237T84 250T98 270H679Q694 262 694 250T679 230H98Q84 237 84 250Z"></path>
<path stroke-width="1" id="E1-MJMATHI-58" d="M42 0H40Q26 0 26 11Q26 15 29 27Q33 41 36 43T55 46Q141 49 190 98Q200 108 306 224T411 342Q302 620 297 625Q288 636 234 637H206Q200 643 200 645T202 664Q206 677 212 683H226Q260 681 347 681Q380 681 408 681T453 682T473 682Q490 682 490 671Q490 670 488 658Q484 643 481 640T465 637Q434 634 411 620L488 426L541 485Q646 598 646 610Q646 628 622 635Q617 635 609 637Q594 637 594 648Q594 650 596 664Q600 677 606 683H618Q619 683 643 683T697 681T738 680Q828 680 837 683H845Q852 676 852 672Q850 647 840 637H824Q790 636 763 628T722 611T698 593L687 584Q687 585 592 480L505 384Q505 383 536 304T601 142T638 56Q648 47 699 46Q734 46 734 37Q734 35 732 23Q728 7 725 4T711 1Q708 1 678 1T589 2Q528 2 496 2T461 1Q444 1 444 10Q444 11 446 25Q448 35 450 39T455 44T464 46T480 47T506 54Q523 62 523 64Q522 64 476 181L429 299Q241 95 236 84Q232 76 232 72Q232 53 261 47Q262 47 267 47T273 46Q276 46 277 46T280 45T283 42T284 35Q284 26 282 19Q279 6 276 4T261 1Q258 1 243 1T201 2T142 2Q64 2 42 0Z"></path>
<path stroke-width="1" id="E1-MJMAIN-2B" d="M56 237T56 250T70 270H369V420L370 570Q380 583 389 583Q402 583 409 568V270H707Q722 262 722 250T707 230H409V-68Q401 -82 391 -82H389H387Q375 -82 369 -68V230H70Q56 237 56 250Z"></path>
<path stroke-width="1" id="E1-MJMAIN-29" d="M60 749L64 750Q69 750 74 750H86L114 726Q208 641 251 514T294 250Q294 182 284 119T261 12T224 -76T186 -143T145 -194T113 -227T90 -246Q87 -249 86 -250H74Q66 -250 63 -250T58 -247T55 -238Q56 -237 66 -225Q221 -64 221 250T66 725Q56 737 55 738Q55 746 60 749Z"></path>
<path stroke-width="1" id="E1-MJSZ2-28" d="M180 96T180 250T205 541T266 770T353 944T444 1069T527 1150H555Q561 1144 561 1141Q561 1137 545 1120T504 1072T447 995T386 878T330 721T288 513T272 251Q272 133 280 56Q293 -87 326 -209T399 -405T475 -531T536 -609T561 -640Q561 -643 555 -649H527Q483 -612 443 -568T353 -443T266 -270T205 -41Z"></path>
<path stroke-width="1" id="E1-MJSZ2-29" d="M35 1138Q35 1150 51 1150H56H69Q113 1113 153 1069T243 944T330 771T391 541T416 250T391 -40T330 -270T243 -443T152 -568T69 -649H56Q43 -649 39 -647T35 -637Q65 -607 110 -548Q283 -316 316 56Q324 133 324 251Q324 368 316 445Q278 877 48 1123Q36 1137 35 1138Z"></path>
<path stroke-width="1" id="E1-MJSZ1-28" d="M152 251Q152 646 388 850H416Q422 844 422 841Q422 837 403 816T357 753T302 649T255 482T236 250Q236 124 255 19T301 -147T356 -251T403 -315T422 -340Q422 -343 416 -349H388Q359 -325 332 -296T271 -213T212 -97T170 56T152 251Z"></path>
<path stroke-width="1" id="E1-MJSZ1-29" d="M305 251Q305 -145 69 -349H56Q43 -349 39 -347T35 -338Q37 -333 60 -307T108 -239T160 -136T204 27T221 250T204 473T160 636T108 740T60 807T35 839Q35 850 50 850H56H69Q197 743 256 566Q305 425 305 251Z"></path>
</defs>
<g stroke="currentColor" fill="currentColor" stroke-width="0" transform="matrix(1 0 0 -1 0 0)">
<g transform="translate(167,0)">
<g transform="translate(-11,0)">
<g transform="translate(0,978)">
<g transform="translate(144,0)">
<rect stroke="none" width="1233" height="72" x="0" y="264"></rect>
<g transform="translate(83,526)">
 <use transform="scale(0.849)" xlink:href="#E1-MJMAIN-2202" x="0" y="0"></use>
 <use transform="scale(0.849)" xlink:href="#E1-MJCAL-4C" x="567" y="0"></use>
</g>
<g transform="translate(72,-561)">
 <use transform="scale(0.849)" xlink:href="#E1-MJMAIN-2202" x="0" y="0"></use>
<g transform="translate(481,0)">
 <use transform="scale(0.849)" xlink:href="#E1-MJMATHI-77" x="0" y="0"></use>
 <use transform="scale(0.849)" xlink:href="#E1-MJMAIN-20D7" x="691" y="55"></use>
</g>
</g>
</g>
</g>
</g>
<g transform="translate(2511,0)">
 <use transform="scale(1.2)" xlink:href="#E1-MJMAIN-3D" x="0" y="815"></use>
 <use transform="scale(1.2)" xlink:href="#E1-MJMAIN-3D" x="0" y="-1064"></use>
</g>
<g transform="translate(4445,0)">
<g transform="translate(0,978)">
<g transform="translate(144,0)">
<rect stroke="none" width="1233" height="72" x="0" y="264"></rect>
 <use transform="scale(0.849)" xlink:href="#E1-MJMAIN-2202" x="443" y="619"></use>
<g transform="translate(72,-561)">
 <use transform="scale(0.849)" xlink:href="#E1-MJMAIN-2202" x="0" y="0"></use>
<g transform="translate(481,0)">
 <use transform="scale(0.849)" xlink:href="#E1-MJMATHI-77" x="0" y="0"></use>
 <use transform="scale(0.849)" xlink:href="#E1-MJMAIN-20D7" x="691" y="55"></use>
</g>
</g>
</g>
<g transform="translate(1521,0)">
<g transform="translate(144,0)">
<rect stroke="none" width="1078" height="72" x="0" y="264"></rect>
 <use transform="scale(0.849)" xlink:href="#E1-MJMAIN-31" x="385" y="597"></use>
<g transform="translate(72,-473)">
 <use transform="scale(0.849)" xlink:href="#E1-MJMAIN-32" x="0" y="0"></use>
 <use transform="scale(0.849)" xlink:href="#E1-MJMATHI-6E" x="500" y="0"></use>
</g>
</g>
</g>
<g transform="translate(2887,0)">
 <use transform="scale(1.2)" xlink:href="#E1-MJSZ2-28"></use>
<g transform="translate(717,0)">
 <use transform="scale(1.2)" xlink:href="#E1-MJMATHI-79" x="0" y="0"></use>
 <use transform="scale(1.2)" xlink:href="#E1-MJMAIN-20D7" x="534" y="18"></use>
 <use transform="scale(0.849)" xlink:href="#E1-MJMATHI-54" x="756" y="651"></use>
</g>
<g transform="translate(2076,0)">
 <use transform="scale(1.2)" xlink:href="#E1-MJMATHI-79" x="0" y="0"></use>
 <use transform="scale(1.2)" xlink:href="#E1-MJMAIN-20D7" x="534" y="18"></use>
</g>
 <use transform="scale(1.2)" xlink:href="#E1-MJMAIN-2212" x="2488" y="0"></use>
 <use transform="scale(1.2)" xlink:href="#E1-MJMAIN-32" x="3488" y="0"></use>
<g transform="translate(4787,0)">
 <use transform="scale(1.2)" xlink:href="#E1-MJMATHI-79" x="0" y="0"></use>
 <use transform="scale(1.2)" xlink:href="#E1-MJMAIN-20D7" x="534" y="18"></use>
 <use transform="scale(0.849)" xlink:href="#E1-MJMATHI-54" x="756" y="651"></use>
</g>
 <use transform="scale(1.2)" xlink:href="#E1-MJMATHI-58" x="5122" y="0"></use>
<g transform="translate(7170,0)">
 <use transform="scale(1.2)" xlink:href="#E1-MJMATHI-77" x="0" y="0"></use>
 <use transform="scale(1.2)" xlink:href="#E1-MJMAIN-20D7" x="662" y="18"></use>
</g>
 <use transform="scale(1.2)" xlink:href="#E1-MJMAIN-2B" x="6913" y="0"></use>
<g transform="translate(9497,0)">
 <use transform="scale(1.2)" xlink:href="#E1-MJMATHI-77" x="0" y="0"></use>
 <use transform="scale(1.2)" xlink:href="#E1-MJMAIN-20D7" x="662" y="18"></use>
 <use transform="scale(0.849)" xlink:href="#E1-MJMATHI-54" x="1013" y="651"></use>
</g>
<g transform="translate(11075,0)">
 <use transform="scale(1.2)" xlink:href="#E1-MJMATHI-58" x="0" y="0"></use>
 <use transform="scale(0.849)" xlink:href="#E1-MJMATHI-54" x="1215" y="581"></use>
</g>
 <use transform="scale(1.2)" xlink:href="#E1-MJMATHI-58" x="10687" y="0"></use>
<g transform="translate(13847,0)">
 <use transform="scale(1.2)" xlink:href="#E1-MJMATHI-77" x="0" y="0"></use>
 <use transform="scale(1.2)" xlink:href="#E1-MJMAIN-20D7" x="662" y="18"></use>
</g>
 <use transform="scale(1.2)" xlink:href="#E1-MJSZ2-29" x="12256" y="-1"></use>
</g>
</g>
<g transform="translate(0,-1276)">
<g transform="translate(144,0)">
<rect stroke="none" width="1078" height="72" x="0" y="264"></rect>
 <use transform="scale(0.849)" xlink:href="#E1-MJMAIN-31" x="385" y="597"></use>
<g transform="translate(72,-473)">
 <use transform="scale(0.849)" xlink:href="#E1-MJMAIN-32" x="0" y="0"></use>
 <use transform="scale(0.849)" xlink:href="#E1-MJMATHI-6E" x="500" y="0"></use>
</g>
</g>
<g transform="translate(1366,0)">
 <use transform="scale(1.2)" xlink:href="#E1-MJSZ1-28"></use>
 <use transform="scale(1.2)" xlink:href="#E1-MJMAIN-2212" x="458" y="0"></use>
 <use transform="scale(1.2)" xlink:href="#E1-MJMAIN-32" x="1237" y="0"></use>
<g transform="translate(2085,0)">
 <use transform="scale(1.2)" xlink:href="#E1-MJMATHI-58" x="0" y="0"></use>
 <use transform="scale(0.849)" xlink:href="#E1-MJMATHI-54" x="1215" y="581"></use>
</g>
<g transform="translate(3834,0)">
 <use transform="scale(1.2)" xlink:href="#E1-MJMATHI-79" x="0" y="0"></use>
 <use transform="scale(1.2)" xlink:href="#E1-MJMAIN-20D7" x="534" y="18"></use>
</g>
 <use transform="scale(1.2)" xlink:href="#E1-MJMAIN-2B" x="3952" y="0"></use>
 <use transform="scale(1.2)" xlink:href="#E1-MJMAIN-32" x="4953" y="0"></use>
<g transform="translate(6544,0)">
 <use transform="scale(1.2)" xlink:href="#E1-MJMATHI-58" x="0" y="0"></use>
 <use transform="scale(0.849)" xlink:href="#E1-MJMATHI-54" x="1215" y="581"></use>
</g>
 <use transform="scale(1.2)" xlink:href="#E1-MJMATHI-58" x="6911" y="0"></use>
<g transform="translate(9317,0)">
 <use transform="scale(1.2)" xlink:href="#E1-MJMATHI-77" x="0" y="0"></use>
 <use transform="scale(1.2)" xlink:href="#E1-MJMAIN-20D7" x="662" y="18"></use>
</g>
 <use transform="scale(1.2)" xlink:href="#E1-MJSZ1-29" x="8480" y="-1"></use>
</g>
</g>
</g>
</g>
</g>
</svg>